<?xml version="1.0" encoding="utf-8"?>
<!-- Generator: Adobe Illustrator 21.0.0, SVG Export Plug-In . SVG Version: 6.00 Build 0)  -->
<svg version="1.1" id="Layer_1" xmlns="http://www.w3.org/2000/svg" xmlns:xlink="http://www.w3.org/1999/xlink" x="0px" y="0px"
	 viewBox="0 0 5065.2 3611.8" style="enable-background:new 0 0 5065.2 3611.8;" xml:space="preserve">
<style type="text/css">
	.st0{fill:#FFFFFF;}
	.st1{clip-path:url(#SVGID_2_);}
	.st2{opacity:5.000000e-02;fill:#434244;enable-background:new    ;}
	.st3{fill:#006838;}
	.st4{opacity:0.5;fill:#8DC63F;enable-background:new    ;}
	.st5{opacity:0.5;fill:#00A14B;enable-background:new    ;}
	.st6{opacity:0.5;fill:#39B54A;enable-background:new    ;}
	.st7{opacity:0.7;fill:#FFFFFF;enable-background:new    ;}
</style>
<title>Asset 4</title>
<g id="Layer_2">
	<g id="Layer_1-2">
		<rect y="0.9" class="st0" width="5065.2" height="3610.9"/>
		<g>
			<defs>
				<rect id="SVGID_1_" y="0.9" width="5065.2" height="3610.9"/>
			</defs>
			<clipPath id="SVGID_2_">
				<use xlink:href="#SVGID_1_"  style="overflow:visible;"/>
			</clipPath>
			<g class="st1">
				
					<rect x="-1360.7" y="526.3" transform="matrix(0.7071 -0.7071 0.7071 0.7071 -3065.8916 1900.21)" class="st2" width="4243.1" height="8249.3"/>
				
					<rect x="-1687.3" y="934.9" transform="matrix(0.7071 -0.7071 0.7071 0.7071 -3450.4878 1788.9951)" class="st2" width="4243.1" height="8249.3"/>
				<polygon class="st2" points="5318.9,-4048.6 11152.1,1784.5 8151.8,4784.8 2318.6,-1048.4 				"/>
				
					<rect x="4773.9" y="-4163.2" transform="matrix(0.7071 -0.7071 0.7071 0.7071 2046.8781 4864.5293)" class="st2" width="4243.1" height="8249.3"/>
				
					<rect x="-552" y="671.4" transform="matrix(0.7071 -0.7071 0.7071 0.7071 -2655.0898 1297.1493)" class="st3" width="1580.5" height="6364.3"/>
				
					<rect x="6146.3" y="-913.1" transform="matrix(0.7071 -0.7071 0.7071 0.7071 394.8029 5491.1333)" class="st3" width="1359" height="6364.3"/>
				<polygon class="st4" points="5551.9,7622.8 4590.9,8583.8 90.7,4083.5 1051.6,3122.6 				"/>
				
					<rect x="6700.1" y="976.3" transform="matrix(0.7071 -0.7071 0.7071 0.7071 -779.0554 6436.1631)" class="st5" width="1359" height="6364.3"/>
				
					<rect x="-1183.4" y="1489.4" transform="matrix(0.7071 -0.7071 0.7071 0.7071 -1936.168 384.5451)" class="st4" width="1359" height="2080.1"/>
				<polygon class="st4" points="6192.6,7478.2 5930.9,7764.2 1430.7,3264 1692.3,2978 				"/>
				<polygon class="st3" points="561,1832.3 299.4,2118.3 -4200.8,-2381.9 -3939.2,-2667.9 				"/>
				<polygon class="st6" points="9283.3,5900.7 9021.6,6186.8 4521.4,1686.5 4783.1,1400.5 				"/>
				<polygon class="st5" points="9043.7,4109.9 8782,4395.9 4281.8,-104.3 4543.4,-390.3 				"/>
			</g>
		</g>
		<rect x="297.8" y="239.8" class="st7" width="4499.7" height="3133.1"/>
	</g>
</g>
</svg>
